# xmcd CD database file
#
# Track frame offsets:
#	150
#	18877
#	33957
#	54377
#	68082
#	97435
#	116512
#	135262
#	182507
#
# Disc length: 2653 seconds
#
# Revision: 0
# Processed by: cddbd v1.5.1PL2 Copyright (c) Steve Scherf et al.
# Submitted via: CDex 1.51
#
DISCID=6e0a5b09
DTITLE=Sakai Shun - Fly Me To The Moon
DYEAR=1997
DGENRE=Jazz
TTITLE0=Fly Me To The Moon
TTITLE1=Shine On Harvest Moon
TTITLE2=Caravan
TTITLE3=Habanera from Carmen
TTITLE4=Feeling Good
TTITLE5=japanese characters
TTITLE6=Cry Me A River
TTITLE7=Amazing Grace
TTITLE8=Le Vie En Rose
EXTD=YEAR: 1997
EXTT0=
EXTT1=
EXTT2=
EXTT3=
EXTT4=
EXTT5=
EXTT6=
EXTT7=
EXTT8=
PLAYORDER=
